<svg viewBox="0 0 200 400" xmlns="http://www.w3.org/2000/svg">
  <!-- Right foot outline (lateral view - mirrored) -->
  <path 
    d="M 100,40 Q 115,60 120,90 Q 125,130 130,170 Q 132,200 128,230 Q 122,270 110,310 Q 100,340 85,365 Q 75,380 60,390 L 55,385 Q 45,370 40,350 Q 35,320 32,290 Q 30,250 35,210 Q 40,170 50,130 Q 60,90 75,60 Q 85,45 100,40 Z"
    fill="none"
    stroke="rgba(37, 99, 235, 0.8)"
    stroke-width="3"
    stroke-dasharray="8,4"
  />
  
  <!-- Anatomical landmark markers (mirrored) -->
  <!-- Fibular head (腓骨頭) -->
  <circle cx="115" cy="80" r="10" fill="rgba(239, 68, 68, 0.7)" stroke="white" stroke-width="2"/>
  <text x="115" y="85" text-anchor="middle" fill="white" font-size="12" font-weight="bold">1</text>
  
  <!-- Lateral malleolus (外果) -->
  <circle cx="125" cy="240" r="10" fill="rgba(239, 68, 68, 0.7)" stroke="white" stroke-width="2"/>
  <text x="125" y="245" text-anchor="middle" fill="white" font-size="12" font-weight="bold">2</text>
  
  <!-- 5th metatarsal head (第5中足骨頭) -->
  <circle cx="55" cy="370" r="10" fill="rgba(239, 68, 68, 0.7)" stroke="white" stroke-width="2"/>
  <text x="55" y="375" text-anchor="middle" fill="white" font-size="12" font-weight="bold">3</text>
</svg>
